<svg xmlns="http://www.w3.org/2000/svg" viewBox="0 0 140.61 166.95"><defs><style>.cls-1{opacity:0.6;}.cls-2{fill:#fff;}</style></defs><title>资源 1</title><g id="图层_2" data-name="图层 2"><g id="Layer_1" data-name="Layer 1"><g id="_编组_" data-name="&lt;编组&gt;"><g id="_编组_2" data-name="&lt;编组&gt;"><g id="_编组_3" data-name="&lt;编组&gt;"><g id="_编组_4" data-name="&lt;编组&gt;" class="cls-1"><polygon id="_路径_" data-name="&lt;路径&gt;" class="cls-2" points="95 110.06 111.83 124.49 113.23 123.29 113.4 123.14 114.67 119.46 99.33 106.32 95 110.06"/><polygon id="_路径_2" data-name="&lt;路径&gt;" class="cls-2" points="28.76 124.47 45.62 110.06 41.28 106.32 25.93 119.43 27.21 123.14 28.76 124.47"/><polygon id="_路径_3" data-name="&lt;路径&gt;" class="cls-2" points="70.31 88.77 82.44 99.23 86.77 95.49 73.14 83.73 73.14 9.93 70.31 7.49 67.47 9.93 67.47 83.73 53.84 95.49 58.18 99.23 70.31 88.77"/></g><path id="_复合路径_" data-name="&lt;复合路径&gt;" class="cls-2" d="M22.35,125.58l48,41.37,48-41.37,22.35-64.92L70.31,0,0,60.66ZM67.47,157,27.21,122.29,9.56,71l57.91,50Zm45.93-34.74-.17.15L73.14,157V121l57.92-50Zm19.76-60.58L70.31,115.94,7.45,61.71,70.31,7.48Z"/></g></g></g></g></g></svg>